<mxfile host="app.diagrams.net" modified="2023-05-10T23:49:05.095Z" agent="Mozilla/5.0 (Windows NT 10.0; Win64; x64) AppleWebKit/537.36 (KHTML, like Gecko) Chrome/113.0.0.0 Safari/537.36" etag="RoQv-H3Flv9SiAOzgXsa" version="21.2.9" type="google">
  <diagram name="Página-1" id="OO4AmKbmK5_TEt20TGp8">
    <mxGraphModel grid="1" page="1" gridSize="10" guides="1" tooltips="1" connect="1" arrows="1" fold="1" pageScale="1" pageWidth="827" pageHeight="1169" math="0" shadow="0">
      <root>
        <mxCell id="0" />
        <mxCell id="1" parent="0" />
        <mxCell id="bf02Y2soMCRe_Av-e7s0-1" style="edgeStyle=orthogonalEdgeStyle;rounded=0;orthogonalLoop=1;jettySize=auto;html=1;entryX=0.556;entryY=1.011;entryDx=0;entryDy=0;entryPerimeter=0;dashed=1;endArrow=open;endFill=0;" edge="1" parent="1" source="bf02Y2soMCRe_Av-e7s0-3" target="bf02Y2soMCRe_Av-e7s0-29">
          <mxGeometry relative="1" as="geometry">
            <Array as="points">
              <mxPoint x="1120" y="30" />
              <mxPoint x="1120" y="30" />
            </Array>
          </mxGeometry>
        </mxCell>
        <mxCell id="bf02Y2soMCRe_Av-e7s0-2" style="edgeStyle=orthogonalEdgeStyle;rounded=0;orthogonalLoop=1;jettySize=auto;html=1;entryX=0.5;entryY=1;entryDx=0;entryDy=0;endArrow=open;endFill=0;dashed=1;" edge="1" parent="1" source="bf02Y2soMCRe_Av-e7s0-3" target="bf02Y2soMCRe_Av-e7s0-32">
          <mxGeometry relative="1" as="geometry" />
        </mxCell>
        <mxCell id="bf02Y2soMCRe_Av-e7s0-3" value="" style="rounded=0;whiteSpace=wrap;html=1;fillColor=none;" vertex="1" parent="1">
          <mxGeometry x="386" y="61" width="950" height="510" as="geometry" />
        </mxCell>
        <mxCell id="bf02Y2soMCRe_Av-e7s0-5" value="«jar»&lt;br&gt;&lt;b&gt;ApipetCrossCutting&lt;/b&gt;" style="html=1;dropTarget=0;whiteSpace=wrap;fillColor=#fff2cc;strokeColor=#d6b656;" vertex="1" parent="1">
          <mxGeometry x="770" y="125" width="180" height="90" as="geometry" />
        </mxCell>
        <mxCell id="bf02Y2soMCRe_Av-e7s0-6" value="" style="shape=module;jettyWidth=8;jettyHeight=4;" vertex="1" parent="bf02Y2soMCRe_Av-e7s0-5">
          <mxGeometry x="1" width="20" height="20" relative="1" as="geometry">
            <mxPoint x="-27" y="7" as="offset" />
          </mxGeometry>
        </mxCell>
        <mxCell id="bf02Y2soMCRe_Av-e7s0-7" style="edgeStyle=orthogonalEdgeStyle;rounded=0;orthogonalLoop=1;jettySize=auto;html=1;endArrow=open;endFill=0;dashed=1;startArrow=none;entryX=0;entryY=0.75;entryDx=0;entryDy=0;" edge="1" parent="1" source="bf02Y2soMCRe_Av-e7s0-10" target="bf02Y2soMCRe_Av-e7s0-5">
          <mxGeometry relative="1" as="geometry">
            <mxPoint x="550" y="215" as="sourcePoint" />
            <Array as="points">
              <mxPoint x="550" y="193" />
            </Array>
          </mxGeometry>
        </mxCell>
        <mxCell id="bf02Y2soMCRe_Av-e7s0-8" style="edgeStyle=orthogonalEdgeStyle;rounded=0;orthogonalLoop=1;jettySize=auto;html=1;entryX=0;entryY=0.5;entryDx=0;entryDy=0;endArrow=open;endFill=0;dashed=1;" edge="1" parent="1" source="bf02Y2soMCRe_Av-e7s0-10" target="bf02Y2soMCRe_Av-e7s0-16">
          <mxGeometry relative="1" as="geometry" />
        </mxCell>
        <mxCell id="bf02Y2soMCRe_Av-e7s0-9" style="edgeStyle=orthogonalEdgeStyle;rounded=0;orthogonalLoop=1;jettySize=auto;html=1;entryX=0;entryY=0.5;entryDx=0;entryDy=0;endArrow=open;endFill=0;dashed=1;" edge="1" parent="1" source="bf02Y2soMCRe_Av-e7s0-10" target="bf02Y2soMCRe_Av-e7s0-26">
          <mxGeometry relative="1" as="geometry" />
        </mxCell>
        <mxCell id="bf02Y2soMCRe_Av-e7s0-10" value="«jar»&lt;br&gt;&lt;b&gt;ApipetApi&lt;/b&gt;" style="html=1;dropTarget=0;whiteSpace=wrap;fillColor=#fff2cc;strokeColor=#d6b656;" vertex="1" parent="1">
          <mxGeometry x="460" y="290" width="180" height="90" as="geometry" />
        </mxCell>
        <mxCell id="bf02Y2soMCRe_Av-e7s0-11" value="" style="shape=module;jettyWidth=8;jettyHeight=4;" vertex="1" parent="bf02Y2soMCRe_Av-e7s0-10">
          <mxGeometry x="1" width="20" height="20" relative="1" as="geometry">
            <mxPoint x="-27" y="7" as="offset" />
          </mxGeometry>
        </mxCell>
        <mxCell id="bf02Y2soMCRe_Av-e7s0-12" style="edgeStyle=orthogonalEdgeStyle;rounded=0;orthogonalLoop=1;jettySize=auto;html=1;entryX=0;entryY=0.5;entryDx=0;entryDy=0;dashed=1;endArrow=open;endFill=0;" edge="1" parent="1" source="bf02Y2soMCRe_Av-e7s0-16" target="bf02Y2soMCRe_Av-e7s0-20">
          <mxGeometry relative="1" as="geometry" />
        </mxCell>
        <mxCell id="bf02Y2soMCRe_Av-e7s0-13" style="edgeStyle=orthogonalEdgeStyle;rounded=0;orthogonalLoop=1;jettySize=auto;html=1;entryX=1;entryY=0.5;entryDx=0;entryDy=0;endArrow=open;endFill=0;dashed=1;" edge="1" parent="1" source="bf02Y2soMCRe_Av-e7s0-16" target="bf02Y2soMCRe_Av-e7s0-26">
          <mxGeometry relative="1" as="geometry">
            <Array as="points">
              <mxPoint x="830" y="475" />
            </Array>
          </mxGeometry>
        </mxCell>
        <mxCell id="bf02Y2soMCRe_Av-e7s0-14" style="edgeStyle=orthogonalEdgeStyle;rounded=0;orthogonalLoop=1;jettySize=auto;html=1;entryX=0;entryY=0.5;entryDx=0;entryDy=0;endArrow=open;endFill=0;dashed=1;" edge="1" parent="1" source="bf02Y2soMCRe_Av-e7s0-16" target="bf02Y2soMCRe_Av-e7s0-23">
          <mxGeometry relative="1" as="geometry">
            <Array as="points">
              <mxPoint x="870" y="475" />
            </Array>
          </mxGeometry>
        </mxCell>
        <mxCell id="bf02Y2soMCRe_Av-e7s0-15" style="edgeStyle=orthogonalEdgeStyle;rounded=0;orthogonalLoop=1;jettySize=auto;html=1;entryX=0.5;entryY=1;entryDx=0;entryDy=0;endArrow=open;endFill=0;dashed=1;" edge="1" parent="1" source="bf02Y2soMCRe_Av-e7s0-16" target="bf02Y2soMCRe_Av-e7s0-5">
          <mxGeometry relative="1" as="geometry" />
        </mxCell>
        <mxCell id="bf02Y2soMCRe_Av-e7s0-16" value="«jar»&lt;br&gt;&lt;b style=&quot;border-color: var(--border-color);&quot;&gt;Apipet&lt;/b&gt;&lt;b&gt;Service&lt;/b&gt;" style="html=1;dropTarget=0;whiteSpace=wrap;fillColor=#fff2cc;strokeColor=#d6b656;" vertex="1" parent="1">
          <mxGeometry x="770" y="290" width="180" height="90" as="geometry" />
        </mxCell>
        <mxCell id="bf02Y2soMCRe_Av-e7s0-17" value="" style="shape=module;jettyWidth=8;jettyHeight=4;" vertex="1" parent="bf02Y2soMCRe_Av-e7s0-16">
          <mxGeometry x="1" width="20" height="20" relative="1" as="geometry">
            <mxPoint x="-27" y="7" as="offset" />
          </mxGeometry>
        </mxCell>
        <mxCell id="bf02Y2soMCRe_Av-e7s0-18" style="edgeStyle=orthogonalEdgeStyle;rounded=0;orthogonalLoop=1;jettySize=auto;html=1;entryX=1;entryY=0.5;entryDx=0;entryDy=0;endArrow=open;endFill=0;dashed=1;" edge="1" parent="1" source="bf02Y2soMCRe_Av-e7s0-20" target="bf02Y2soMCRe_Av-e7s0-23">
          <mxGeometry relative="1" as="geometry" />
        </mxCell>
        <mxCell id="bf02Y2soMCRe_Av-e7s0-19" style="edgeStyle=orthogonalEdgeStyle;rounded=0;orthogonalLoop=1;jettySize=auto;html=1;entryX=1;entryY=0.75;entryDx=0;entryDy=0;dashed=1;endArrow=open;endFill=0;" edge="1" parent="1" source="bf02Y2soMCRe_Av-e7s0-20" target="bf02Y2soMCRe_Av-e7s0-5">
          <mxGeometry relative="1" as="geometry">
            <Array as="points">
              <mxPoint x="1130" y="193" />
            </Array>
          </mxGeometry>
        </mxCell>
        <mxCell id="bf02Y2soMCRe_Av-e7s0-20" value="«jar»&lt;br&gt;&lt;b style=&quot;border-color: var(--border-color);&quot;&gt;Apipet&lt;/b&gt;&lt;b&gt;Repository&lt;/b&gt;" style="html=1;dropTarget=0;whiteSpace=wrap;fillColor=#fff2cc;strokeColor=#d6b656;" vertex="1" parent="1">
          <mxGeometry x="1050" y="290" width="180" height="90" as="geometry" />
        </mxCell>
        <mxCell id="bf02Y2soMCRe_Av-e7s0-21" value="" style="shape=module;jettyWidth=8;jettyHeight=4;" vertex="1" parent="bf02Y2soMCRe_Av-e7s0-20">
          <mxGeometry x="1" width="20" height="20" relative="1" as="geometry">
            <mxPoint x="-27" y="7" as="offset" />
          </mxGeometry>
        </mxCell>
        <mxCell id="bf02Y2soMCRe_Av-e7s0-22" style="edgeStyle=orthogonalEdgeStyle;rounded=0;orthogonalLoop=1;jettySize=auto;html=1;entryX=1;entryY=0.25;entryDx=0;entryDy=0;dashed=1;endArrow=open;endFill=0;" edge="1" parent="1" source="bf02Y2soMCRe_Av-e7s0-23" target="bf02Y2soMCRe_Av-e7s0-5">
          <mxGeometry relative="1" as="geometry">
            <Array as="points">
              <mxPoint x="1300" y="500" />
              <mxPoint x="1300" y="148" />
            </Array>
          </mxGeometry>
        </mxCell>
        <mxCell id="bf02Y2soMCRe_Av-e7s0-23" value="«jar»&lt;br&gt;&lt;b style=&quot;border-color: var(--border-color);&quot;&gt;Apipet&lt;/b&gt;&lt;b&gt;Entity&lt;/b&gt;" style="html=1;dropTarget=0;whiteSpace=wrap;fillColor=#fff2cc;strokeColor=#d6b656;" vertex="1" parent="1">
          <mxGeometry x="917" y="430" width="180" height="90" as="geometry" />
        </mxCell>
        <mxCell id="bf02Y2soMCRe_Av-e7s0-24" value="" style="shape=module;jettyWidth=8;jettyHeight=4;" vertex="1" parent="bf02Y2soMCRe_Av-e7s0-23">
          <mxGeometry x="1" width="20" height="20" relative="1" as="geometry">
            <mxPoint x="-27" y="7" as="offset" />
          </mxGeometry>
        </mxCell>
        <mxCell id="bf02Y2soMCRe_Av-e7s0-25" style="edgeStyle=orthogonalEdgeStyle;rounded=0;orthogonalLoop=1;jettySize=auto;html=1;entryX=0;entryY=0.25;entryDx=0;entryDy=0;dashed=1;endArrow=open;endFill=0;" edge="1" parent="1" source="bf02Y2soMCRe_Av-e7s0-26" target="bf02Y2soMCRe_Av-e7s0-5">
          <mxGeometry relative="1" as="geometry">
            <Array as="points">
              <mxPoint x="420" y="500" />
              <mxPoint x="420" y="148" />
            </Array>
          </mxGeometry>
        </mxCell>
        <mxCell id="bf02Y2soMCRe_Av-e7s0-26" value="«jar»&lt;br&gt;&lt;b&gt;ApipetDTO&lt;/b&gt;" style="html=1;dropTarget=0;whiteSpace=wrap;fillColor=#fff2cc;strokeColor=#d6b656;" vertex="1" parent="1">
          <mxGeometry x="619" y="430" width="180" height="90" as="geometry" />
        </mxCell>
        <mxCell id="bf02Y2soMCRe_Av-e7s0-27" value="" style="shape=module;jettyWidth=8;jettyHeight=4;" vertex="1" parent="bf02Y2soMCRe_Av-e7s0-26">
          <mxGeometry x="1" width="20" height="20" relative="1" as="geometry">
            <mxPoint x="-27" y="7" as="offset" />
          </mxGeometry>
        </mxCell>
        <mxCell id="bf02Y2soMCRe_Av-e7s0-28" value="Apipet Backend" style="text;html=1;align=center;verticalAlign=middle;resizable=0;points=[];autosize=1;strokeColor=none;fillColor=none;" vertex="1" parent="1">
          <mxGeometry x="802" y="61" width="110" height="30" as="geometry" />
        </mxCell>
        <mxCell id="bf02Y2soMCRe_Av-e7s0-29" value="«jar»&lt;br&gt;&lt;b&gt;Java 20&lt;/b&gt;" style="html=1;dropTarget=0;whiteSpace=wrap;fillColor=#dae8fc;strokeColor=#6c8ebf;" vertex="1" parent="1">
          <mxGeometry x="1020" y="-110" width="180" height="90" as="geometry" />
        </mxCell>
        <mxCell id="bf02Y2soMCRe_Av-e7s0-30" value="" style="shape=module;jettyWidth=8;jettyHeight=4;" vertex="1" parent="bf02Y2soMCRe_Av-e7s0-29">
          <mxGeometry x="1" width="20" height="20" relative="1" as="geometry">
            <mxPoint x="-27" y="7" as="offset" />
          </mxGeometry>
        </mxCell>
        <mxCell id="bf02Y2soMCRe_Av-e7s0-31" style="edgeStyle=orthogonalEdgeStyle;rounded=0;orthogonalLoop=1;jettySize=auto;html=1;entryX=0;entryY=0.5;entryDx=0;entryDy=0;dashed=1;endArrow=open;endFill=0;" edge="1" parent="1" source="bf02Y2soMCRe_Av-e7s0-32" target="bf02Y2soMCRe_Av-e7s0-29">
          <mxGeometry relative="1" as="geometry" />
        </mxCell>
        <mxCell id="bf02Y2soMCRe_Av-e7s0-32" value="«jar»&lt;br&gt;&lt;b&gt;SpringBoot 3.0.6&lt;/b&gt;" style="html=1;dropTarget=0;whiteSpace=wrap;fillColor=#dae8fc;strokeColor=#6c8ebf;" vertex="1" parent="1">
          <mxGeometry x="771" y="-110" width="180" height="90" as="geometry" />
        </mxCell>
        <mxCell id="bf02Y2soMCRe_Av-e7s0-33" value="" style="shape=module;jettyWidth=8;jettyHeight=4;" vertex="1" parent="bf02Y2soMCRe_Av-e7s0-32">
          <mxGeometry x="1" width="20" height="20" relative="1" as="geometry">
            <mxPoint x="-27" y="7" as="offset" />
          </mxGeometry>
        </mxCell>
        <mxCell id="bf02Y2soMCRe_Av-e7s0-34" value="&amp;lt;&amp;lt;use&amp;gt;&amp;gt;" style="text;html=1;align=center;verticalAlign=middle;resizable=0;points=[];autosize=1;strokeColor=none;fillColor=none;" vertex="1" parent="1">
          <mxGeometry x="516" y="230" width="70" height="30" as="geometry" />
        </mxCell>
        <mxCell id="bf02Y2soMCRe_Av-e7s0-35" value="&amp;lt;&amp;lt;use&amp;gt;&amp;gt;" style="text;html=1;align=center;verticalAlign=middle;resizable=0;points=[];autosize=1;strokeColor=none;fillColor=none;" vertex="1" parent="1">
          <mxGeometry x="825" y="230" width="70" height="30" as="geometry" />
        </mxCell>
        <mxCell id="bf02Y2soMCRe_Av-e7s0-36" value="&amp;lt;&amp;lt;use&amp;gt;&amp;gt;" style="text;html=1;align=center;verticalAlign=middle;resizable=0;points=[];autosize=1;strokeColor=none;fillColor=none;" vertex="1" parent="1">
          <mxGeometry x="1096" y="230" width="70" height="30" as="geometry" />
        </mxCell>
        <mxCell id="bf02Y2soMCRe_Av-e7s0-37" value="&amp;lt;&amp;lt;use&amp;gt;&amp;gt;" style="text;html=1;align=center;verticalAlign=middle;resizable=0;points=[];autosize=1;strokeColor=none;fillColor=none;" vertex="1" parent="1">
          <mxGeometry x="663" y="313" width="70" height="30" as="geometry" />
        </mxCell>
        <mxCell id="bf02Y2soMCRe_Av-e7s0-38" value="&amp;lt;&amp;lt;use&amp;gt;&amp;gt;" style="text;html=1;align=center;verticalAlign=middle;resizable=0;points=[];autosize=1;strokeColor=none;fillColor=none;" vertex="1" parent="1">
          <mxGeometry x="970" y="314" width="70" height="30" as="geometry" />
        </mxCell>
        <mxCell id="bf02Y2soMCRe_Av-e7s0-39" value="&amp;lt;&amp;lt;use&amp;gt;&amp;gt;" style="text;html=1;align=center;verticalAlign=middle;resizable=0;points=[];autosize=1;strokeColor=none;fillColor=none;" vertex="1" parent="1">
          <mxGeometry x="516" y="410" width="70" height="30" as="geometry" />
        </mxCell>
        <mxCell id="bf02Y2soMCRe_Av-e7s0-40" value="&amp;lt;&amp;lt;use&amp;gt;&amp;gt;" style="text;html=1;align=center;verticalAlign=middle;resizable=0;points=[];autosize=1;strokeColor=none;fillColor=none;" vertex="1" parent="1">
          <mxGeometry x="795" y="390" width="70" height="30" as="geometry" />
        </mxCell>
        <mxCell id="bf02Y2soMCRe_Av-e7s0-41" value="&amp;lt;&amp;lt;use&amp;gt;&amp;gt;" style="text;html=1;align=center;verticalAlign=middle;resizable=0;points=[];autosize=1;strokeColor=none;fillColor=none;" vertex="1" parent="1">
          <mxGeometry x="835" y="420" width="70" height="30" as="geometry" />
        </mxCell>
        <mxCell id="bf02Y2soMCRe_Av-e7s0-42" value="&amp;lt;&amp;lt;use&amp;gt;&amp;gt;" style="text;html=1;align=center;verticalAlign=middle;resizable=0;points=[];autosize=1;strokeColor=none;fillColor=none;" vertex="1" parent="1">
          <mxGeometry x="1104" y="412" width="70" height="30" as="geometry" />
        </mxCell>
        <mxCell id="bf02Y2soMCRe_Av-e7s0-43" value="&amp;lt;&amp;lt;use&amp;gt;&amp;gt;" style="text;html=1;align=center;verticalAlign=middle;resizable=0;points=[];autosize=1;strokeColor=none;fillColor=none;" vertex="1" parent="1">
          <mxGeometry x="1265" y="306" width="70" height="30" as="geometry" />
        </mxCell>
        <mxCell id="bf02Y2soMCRe_Av-e7s0-44" value="&amp;lt;&amp;lt;use&amp;gt;&amp;gt;" style="text;html=1;align=center;verticalAlign=middle;resizable=0;points=[];autosize=1;strokeColor=none;fillColor=none;" vertex="1" parent="1">
          <mxGeometry x="385" y="290" width="70" height="30" as="geometry" />
        </mxCell>
        <mxCell id="bf02Y2soMCRe_Av-e7s0-45" value="&amp;lt;&amp;lt;use&amp;gt;&amp;gt;" style="text;html=1;align=center;verticalAlign=middle;resizable=0;points=[];autosize=1;strokeColor=none;fillColor=none;" vertex="1" parent="1">
          <mxGeometry x="826" y="10" width="70" height="30" as="geometry" />
        </mxCell>
        <mxCell id="bf02Y2soMCRe_Av-e7s0-46" value="&amp;lt;&amp;lt;use&amp;gt;&amp;gt;" style="text;html=1;align=center;verticalAlign=middle;resizable=0;points=[];autosize=1;strokeColor=none;fillColor=none;" vertex="1" parent="1">
          <mxGeometry x="1086" y="10" width="70" height="30" as="geometry" />
        </mxCell>
        <mxCell id="bf02Y2soMCRe_Av-e7s0-52" style="edgeStyle=orthogonalEdgeStyle;rounded=0;orthogonalLoop=1;jettySize=auto;html=1;entryX=0;entryY=0.5;entryDx=0;entryDy=0;endArrow=none;endFill=0;" edge="1" parent="1" source="bf02Y2soMCRe_Av-e7s0-53" target="bf02Y2soMCRe_Av-e7s0-10">
          <mxGeometry relative="1" as="geometry" />
        </mxCell>
        <mxCell id="bf02Y2soMCRe_Av-e7s0-53" value="" style="ellipse;whiteSpace=wrap;html=1;aspect=fixed;" vertex="1" parent="1">
          <mxGeometry x="280" y="314" width="41" height="41" as="geometry" />
        </mxCell>
        <mxCell id="bf02Y2soMCRe_Av-e7s0-54" value="REST" style="text;html=1;align=center;verticalAlign=middle;resizable=0;points=[];autosize=1;strokeColor=none;fillColor=none;" vertex="1" parent="1">
          <mxGeometry x="270.5" y="284" width="60" height="30" as="geometry" />
        </mxCell>
      </root>
    </mxGraphModel>
  </diagram>
</mxfile>
